<svg width="37" height="37" viewBox="0 0 37 37" fill="none" xmlns="http://www.w3.org/2000/svg">
<circle cx="18.5" cy="18.5" r="18.5" fill="white"/>
<path d="M18 10.7136C18.9283 10.7136 19.8185 11.1167 20.4749 11.8343C21.1313 12.5519 21.5 13.5251 21.5 14.5399C21.5 15.5547 21.1313 16.5279 20.4749 17.2455C19.8185 17.9631 18.9283 18.3662 18 18.3662C17.0717 18.3662 16.1815 17.9631 15.5251 17.2455C14.8687 16.5279 14.5 15.5547 14.5 14.5399C14.5 13.5251 14.8687 12.5519 15.5251 11.8343C16.1815 11.1167 17.0717 10.7136 18 10.7136ZM11 13.4467C11.56 13.4467 12.08 13.6107 12.53 13.9058C12.38 15.4692 12.8 17.0215 13.66 18.235C13.16 19.2845 12.16 20.006 11 20.006C10.2044 20.006 9.44129 19.6605 8.87868 19.0454C8.31607 18.4304 8 17.5962 8 16.7264C8 15.8565 8.31607 15.0223 8.87868 14.4073C9.44129 13.7922 10.2044 13.4467 11 13.4467ZM25 13.4467C25.7956 13.4467 26.5587 13.7922 27.1213 14.4073C27.6839 15.0223 28 15.8565 28 16.7264C28 17.5962 27.6839 18.4304 27.1213 19.0454C26.5587 19.6605 25.7956 20.006 25 20.006C23.84 20.006 22.84 19.2845 22.34 18.235C23.2119 17.0045 23.6166 15.4541 23.47 13.9058C23.92 13.6107 24.44 13.4467 25 13.4467ZM11.5 24.6523C11.5 22.3893 14.41 20.5527 18 20.5527C21.59 20.5527 24.5 22.3893 24.5 24.6523V26.5654H11.5V24.6523ZM6 26.5654V24.9256C6 23.406 7.89 22.1269 10.45 21.7552C9.86 22.4986 9.5 23.5262 9.5 24.6523V26.5654H6ZM30 26.5654H26.5V24.6523C26.5 23.5262 26.14 22.4986 25.55 21.7552C28.11 22.1269 30 23.406 30 24.9256V26.5654Z" fill="#131212"/>
</svg>
