<svg width="24" height="17" viewBox="0 0 24 17" fill="none" xmlns="http://www.w3.org/2000/svg">
<path d="M12 0.713623C12.9283 0.713623 13.8185 1.11675 14.4749 1.83432C15.1312 2.55189 15.5 3.52512 15.5 4.53991C15.5 5.55471 15.1312 6.52794 14.4749 7.24551C13.8185 7.96308 12.9283 8.3662 12 8.3662C11.0717 8.3662 10.1815 7.96308 9.52513 7.24551C8.86875 6.52794 8.5 5.55471 8.5 4.53991C8.5 3.52512 8.86875 2.55189 9.52513 1.83432C10.1815 1.11675 11.0717 0.713623 12 0.713623M5 3.44669C5.56 3.44669 6.08 3.61067 6.53 3.90584C6.38 5.46916 6.8 7.02154 7.66 8.23502C7.16 9.28451 6.16 10.006 5 10.006C4.20435 10.006 3.44129 9.66051 2.87868 9.04545C2.31607 8.43039 2 7.59619 2 6.72637C2 5.85654 2.31607 5.02234 2.87868 4.40728C3.44129 3.79222 4.20435 3.44669 5 3.44669M19 3.44669C19.7956 3.44669 20.5587 3.79222 21.1213 4.40728C21.6839 5.02234 22 5.85654 22 6.72637C22 7.59619 21.6839 8.43039 21.1213 9.04545C20.5587 9.66051 19.7956 10.006 19 10.006C17.84 10.006 16.84 9.28451 16.34 8.23502C17.2119 7.0045 17.6166 5.45407 17.47 3.90584C17.92 3.61067 18.44 3.44669 19 3.44669M5.5 14.6523C5.5 12.3893 8.41 10.5527 12 10.5527C15.59 10.5527 18.5 12.3893 18.5 14.6523V16.5654H5.5V14.6523ZM0 16.5654V14.9256C0 13.406 1.89 12.1269 4.45 11.7552C3.86 12.4986 3.5 13.5262 3.5 14.6523V16.5654H0ZM24 16.5654H20.5V14.6523C20.5 13.5262 20.14 12.4986 19.55 11.7552C22.11 12.1269 24 13.406 24 14.9256V16.5654Z" fill="#131212"/>
</svg>
