<svg width="43" height="23" viewBox="0 0 43 23" fill="none" xmlns="http://www.w3.org/2000/svg">
<path d="M40.85 0H2.15C0.962797 0 0 0.858307 0 1.91667V21.0833C0 22.1417 0.962797 23 2.15 23H40.85C42.0372 23 43 22.1417 43 21.0833V1.91667C43 0.858307 42.0372 0 40.85 0ZM3.225 20.125V16.2917C5.60008 16.2917 7.525 18.0077 7.525 20.125H3.225ZM3.225 6.70833V2.875H7.525C7.525 4.99232 5.60008 6.70833 3.225 6.70833ZM21.5 17.25C18.531 17.25 16.125 14.6751 16.125 11.5C16.125 8.32432 18.5317 5.75 21.5 5.75C24.4683 5.75 26.875 8.32432 26.875 11.5C26.875 14.6763 24.4677 17.25 21.5 17.25ZM39.775 20.125H35.475C35.475 18.0077 37.3999 16.2917 39.775 16.2917V20.125ZM39.775 6.70833C37.3999 6.70833 35.475 4.99232 35.475 2.875H39.775V6.70833Z" fill="black"/>
</svg>
