<svg width="45" height="25" viewBox="0 0 45 25" fill="none" xmlns="http://www.w3.org/2000/svg">
<path d="M31.5 4.41176H36V25H9V4.41176H13.5V2.94118C13.5 2.16113 13.9741 1.41303 14.818 0.86145C15.6619 0.309873 16.8065 0 18 0H27C28.1935 0 29.3381 0.309873 30.182 0.86145C31.0259 1.41303 31.5 2.16113 31.5 2.94118V4.41176ZM38.25 4.41176H40.5C41.6935 4.41176 42.8381 4.72164 43.682 5.27322C44.5259 5.82479 45 6.57289 45 7.35294V22.0588C45 22.8389 44.5259 23.587 43.682 24.1385C42.8381 24.6901 41.6935 25 40.5 25H38.25V4.41176ZM6.75 4.41176V25H4.5C3.30653 25 2.16193 24.6901 1.31802 24.1385C0.474106 23.587 0 22.8389 0 22.0588V7.35294C0 5.73529 2.025 4.41176 4.5 4.41176H6.75ZM18 2.94118V4.41176H27V2.94118H18Z" fill="black"/>
</svg>
