<svg width="26" height="21" viewBox="0 0 26 21" fill="none" xmlns="http://www.w3.org/2000/svg">
<path d="M11.8352 7.13035C11.8352 9.1833 10.1498 10.8405 8.06194 10.8405C5.97409 10.8405 4.28872 9.1833 4.28872 7.13035C4.28872 5.07741 5.97409 3.42021 8.06194 3.42021C10.1498 3.42021 11.8352 5.07741 11.8352 7.13035ZM15.6084 20.7342H0.515503V18.2608C0.515503 15.5276 3.89882 13.3139 8.06194 13.3139C12.2251 13.3139 15.6084 15.5276 15.6084 18.2608M25.6703 10.8405V13.3139H14.3506V10.8405M25.6703 5.89364V8.36707H14.3506V5.89364M25.6703 0.946777V3.42021H14.3506V0.946777H25.6703Z" fill="#131212"/>
</svg>
